PathFileType	4	(X/Y/Z)	C:\Git\research_data\torsion_deformities_healthy_kinematics\simulations\P01\post\Stand01\marker_experimental_HJC.trc
DataRate	CameraRate	NumFrames	NumMarkers	Units	OrigDataRate	OrigDataStartFrame	OrigNumFrames
150	150	2	231	mm	150	132	150
Frame#	Time	LFHD			LBHD			RFHD			RBHD			C7			T10			CLAV			STRN			RBAK			LSHO			LUPA			LELB			LFRA			LWRB			LWRA			LFIN			RSHO			RUPA			RELB			RFRA			RWRB			RWRA			RFIN			SACR			LASI			RASI			LT1			LT2			LT3			LS1			LS2			LS3			LHEE			LTOE			RT1			RT2			RT3			RS1			RS2			RS3			RHEE			RTOE			PELO			PELA			PELL			PELP			SACO			SACA			SACL			SACP			LFEO			LFEA			LFEL			LFEP			RFEO			RFEA			RFEL			RFEP			LTIO			LTIA			LTIL			LTIP			RTIO			RTIA			RTIL			RTIP			LFOO			LFOA			LFOL			LFOP			RFOO			RFOA			RFOL			RFOP			LTOO			LTOA			LTOL			LTOP			RTOO			RTOA			RTOL			RTOP			HEDO			HEDA			HEDL			HEDP			LCLO			LCLA			LCLL			LCLP			RCLO			RCLA			RCLL			RCLP			TRXO			TRXA			TRXL			TRXP			LHUO			LHUA			LHUL			LHUP			LRAO			LRAA			LRAL			LRAP			LHNO			LHNA			LHNL			LHNP			RHUO			RHUA			RHUL			RHUP			RRAO			RRAA			RRAL			RRAP			RHNO			RHNA			RHNL			RHNP			LPelvisAngles			RPelvisAngles			LFootProgressAngles			RFootProgressAngles			LHipAngles			RHipAngles			LKneeAngles			RKneeAngles			LAnkleAngles			RAnkleAngles			LFFootAngles			RFFootAngles			LAbsAnkleAngle			RAbsAnkleAngle			RNeckAngles			LNeckAngles			RSpineAngles			LSpineAngles			LShoulderAngles			LElbowAngles			LWristAngles			RShoulderAngles			RElbowAngles			RWristAngles			RThoraxAngles			LThoraxAngles			RHeadAngles			LHeadAngles			LHipPower			LKneePower			LAnklePower			RHipPower			RKneePower			RAnklePower			LWaistPower			RWaistPower			LNeckPower			RNeckPower			LShoulderPower			RShoulderPower			LElbowPower			RElbowPower			LWristPower			RWristPower			F_ForcePlate1			F_ForcePlate2			F_ForcePlate3			LGRF			RGRF			LHipForce			RHipForce			LKneeForce			RKneeForce			LAnkleForce			RAnkleForce			LWaistForce			RWaistForce			LNeckForce			RNeckForce			LShoulderForce			RShoulderForce			LElbowForce			RElbowForce			LWristForce			RWristForce			LNormalisedGRF			RNormalisedGRF			LGroundReactionForce			RGroundReactionForce			LHipMoment			RHipMoment			LKneeMoment			RKneeMoment			LAnkleMoment			RAnkleMoment			LWaistMoment			RWaistMoment			LNeckMoment			RNeckMoment			LShoulderMoment			RShoulderMoment			LElbowMoment			RElbowMoment			LWristMoment			RWristMoment			LKNE			RKNE			LANK			RANK			LKJC			RKJC			LAJC			RAJC			LTHI			RTHI			LTIB			RTIB			P_ForcePlate1			P_ForcePlate2			P_ForcePlate3			CentreOfMass			CentreOfMassFloor			funktRKJC			funktLKJC			funktRHIP			funktLHIP			LHJC			RHJC			LHF		
		X1	Y1	Z1	X2	Y2	Z2	X3	Y3	Z3	X4	Y4	Z4	X5	Y5	Z5	X6	Y6	Z6	X7	Y7	Z7	X8	Y8	Z8	X9	Y9	Z9	X10	Y10	Z10	X11	Y11	Z11	X12	Y12	Z12	X13	Y13	Z13	X14	Y14	Z14	X15	Y15	Z15	X16	Y16	Z16	X17	Y17	Z17	X18	Y18	Z18	X19	Y19	Z19	X20	Y20	Z20	X21	Y21	Z21	X22	Y22	Z22	X23	Y23	Z23	X24	Y24	Z24	X25	Y25	Z25	X26	Y26	Z26	X27	Y27	Z27	X28	Y28	Z28	X29	Y29	Z29	X30	Y30	Z30	X31	Y31	Z31	X32	Y32	Z32	X33	Y33	Z33	X34	Y34	Z34	X35	Y35	Z35	X36	Y36	Z36	X37	Y37	Z37	X38	Y38	Z38	X39	Y39	Z39	X40	Y40	Z40	X41	Y41	Z41	X42	Y42	Z42	X43	Y43	Z43	X44	Y44	Z44	X45	Y45	Z45	X46	Y46	Z46	X47	Y47	Z47	X48	Y48	Z48	X49	Y49	Z49	X50	Y50	Z50	X51	Y51	Z51	X52	Y52	Z52	X53	Y53	Z53	X54	Y54	Z54	X55	Y55	Z55	X56	Y56	Z56	X57	Y57	Z57	X58	Y58	Z58	X59	Y59	Z59	X60	Y60	Z60	X61	Y61	Z61	X62	Y62	Z62	X63	Y63	Z63	X64	Y64	Z64	X65	Y65	Z65	X66	Y66	Z66	X67	Y67	Z67	X68	Y68	Z68	X69	Y69	Z69	X70	Y70	Z70	X71	Y71	Z71	X72	Y72	Z72	X73	Y73	Z73	X74	Y74	Z74	X75	Y75	Z75	X76	Y76	Z76	X77	Y77	Z77	X78	Y78	Z78	X79	Y79	Z79	X80	Y80	Z80	X81	Y81	Z81	X82	Y82	Z82	X83	Y83	Z83	X84	Y84	Z84	X85	Y85	Z85	X86	Y86	Z86	X87	Y87	Z87	X88	Y88	Z88	X89	Y89	Z89	X90	Y90	Z90	X91	Y91	Z91	X92	Y92	Z92	X93	Y93	Z93	X94	Y94	Z94	X95	Y95	Z95	X96	Y96	Z96	X97	Y97	Z97	X98	Y98	Z98	X99	Y99	Z99	X100	Y100	Z100	X101	Y101	Z101	X102	Y102	Z102	X103	Y103	Z103	X104	Y104	Z104	X105	Y105	Z105	X106	Y106	Z106	X107	Y107	Z107	X108	Y108	Z108	X109	Y109	Z109	X110	Y110	Z110	X111	Y111	Z111	X112	Y112	Z112	X113	Y113	Z113	X114	Y114	Z114	X115	Y115	Z115	X116	Y116	Z116	X117	Y117	Z117	X118	Y118	Z118	X119	Y119	Z119	X120	Y120	Z120	X121	Y121	Z121	X122	Y122	Z122	X123	Y123	Z123	X124	Y124	Z124	X125	Y125	Z125	X126	Y126	Z126	X127	Y127	Z127	X128	Y128	Z128	X129	Y129	Z129	X130	Y130	Z130	X131	Y131	Z131	X132	Y132	Z132	X133	Y133	Z133	X134	Y134	Z134	X135	Y135	Z135	X136	Y136	Z136	X137	Y137	Z137	X138	Y138	Z138	X139	Y139	Z139	X140	Y140	Z140	X141	Y141	Z141	X142	Y142	Z142	X143	Y143	Z143	X144	Y144	Z144	X145	Y145	Z145	X146	Y146	Z146	X147	Y147	Z147	X148	Y148	Z148	X149	Y149	Z149	X150	Y150	Z150	X151	Y151	Z151	X152	Y152	Z152	X153	Y153	Z153	X154	Y154	Z154	X155	Y155	Z155	X156	Y156	Z156	X157	Y157	Z157	X158	Y158	Z158	X159	Y159	Z159	X160	Y160	Z160	X161	Y161	Z161	X162	Y162	Z162	X163	Y163	Z163	X164	Y164	Z164	X165	Y165	Z165	X166	Y166	Z166	X167	Y167	Z167	X168	Y168	Z168	X169	Y169	Z169	X170	Y170	Z170	X171	Y171	Z171	X172	Y172	Z172	X173	Y173	Z173	X174	Y174	Z174	X175	Y175	Z175	X176	Y176	Z176	X177	Y177	Z177	X178	Y178	Z178	X179	Y179	Z179	X180	Y180	Z180	X181	Y181	Z181	X182	Y182	Z182	X183	Y183	Z183	X184	Y184	Z184	X185	Y185	Z185	X186	Y186	Z186	X187	Y187	Z187	X188	Y188	Z188	X189	Y189	Z189	X190	Y190	Z190	X191	Y191	Z191	X192	Y192	Z192	X193	Y193	Z193	X194	Y194	Z194	X195	Y195	Z195	X196	Y196	Z196	X197	Y197	Z197	X198	Y198	Z198	X199	Y199	Z199	X200	Y200	Z200	X201	Y201	Z201	X202	Y202	Z202	X203	Y203	Z203	X204	Y204	Z204	X205	Y205	Z205	X206	Y206	Z206	X207	Y207	Z207	X208	Y208	Z208	X209	Y209	Z209	X210	Y210	Z210	X211	Y211	Z211	X212	Y212	Z212	X213	Y213	Z213	X214	Y214	Z214	X215	Y215	Z215	X216	Y216	Z216	X217	Y217	Z217	X218	Y218	Z218	X219	Y219	Z219	X220	Y220	Z220	X221	Y221	Z221	X222	Y222	Z222	X223	Y223	Z223	X224	Y224	Z224	X225	Y225	Z225	X226	Y226	Z226	X227	Y227	Z227	X228	Y228	Z228	X229	Y229	Z229	X230	Y230	Z230	X231	Y231	Z231	

132	0.873333	-334.702942	1545.741577	1298.620361	-333.537842	1521.686401	1159.335693	-461.453125	1542.825195	1306.933838	-484.477081	1518.098145	1181.119385	-400.976166	1406.212524	1149.377197	-393.777374	1225.696655	1086.847290	-406.451263	1338.925415	1266.764648	-407.351379	1302.594116	1287.474609	-508.448578	1267.166626	1077.654175	-254.384323	1380.102417	1181.997437	-145.956451	1189.811768	1152.101074	-88.272919	1114.352661	1172.339355	-41.670040	1071.212891	1193.211182	48.767849	940.841614	1269.234253	22.993887	949.273682	1333.580688	78.642296	900.469666	1350.662109	-554.826721	1367.501831	1176.353882	-622.892822	1281.348633	1157.702393	-694.369629	1092.233765	1147.606567	-817.381287	951.710022	1204.424072	-842.794067	909.611389	1222.648804	-842.196838	935.126892	1288.387939	-900.325684	883.091675	1298.084839	-393.896118	971.732666	1083.047485	-254.076721	934.139404	1269.371338	-540.282776	934.087707	1260.881348	-206.254654	643.517578	1238.924805	-191.094513	553.451050	1157.051025	-235.218155	566.751709	1292.872681	-202.898514	258.276764	1179.240112	-188.180222	179.830093	1087.025024	-227.589066	178.416992	1223.651367	-275.636597	39.436249	1091.258667	-226.243591	38.875484	1252.068604	-583.709595	660.883240	1198.347656	-555.371460	589.731873	1100.779419	-582.636902	572.035828	1240.958984	-577.010437	267.653351	1153.966187	-555.141113	203.224884	1053.832764	-571.258240	182.355591	1193.601685	-495.217987	41.377499	1085.228638	-539.853943	39.892040	1246.322021	-395.194000	848.691040	1199.716797	-395.632294	845.633240	1214.511597	-382.604645	848.693298	1200.090210	-395.971741	972.035400	1225.186768	-393.527069	959.595398	1141.836060	-393.709717	958.321289	1148.000610	-387.232391	959.596558	1142.022827	-393.916107	1021.267639	1154.570801	-281.474670	469.609863	1218.863159	-274.677124	472.227051	1256.456665	-244.133743	474.289032	1211.785522	-332.249329	848.765137	1201.648071	-498.683044	473.793854	1206.911865	-505.791229	475.463593	1243.910278	-461.869629	469.988159	1214.156250	-458.138702	848.616821	1197.785522	-266.454285	45.477341	1149.615601	-248.408630	40.654003	1183.072266	-231.552429	49.687817	1131.397461	-280.284973	436.015137	1213.378052	-505.487671	50.497547	1142.279175	-521.169250	45.282818	1178.082764	-469.311707	47.561993	1157.696289	-499.222076	440.265350	1201.792480	-226.983231	49.210121	1252.788208	-227.935699	62.517807	1253.714966	-214.238495	50.392307	1248.910889	-266.384186	55.280190	1125.129517	-539.498474	50.054996	1247.280273	-539.037659	63.230244	1248.522583	-526.723084	49.287800	1250.677856	-504.973389	60.858215	1119.900635	-214.047317	47.563740	1294.805664	-214.348068	51.766167	1295.098267	-210.022659	47.937027	1293.581177	-226.490051	49.480255	1254.492310	-550.843323	46.848049	1289.214233	-550.697815	51.008648	1289.606445	-546.809021	46.605778	1290.287109	-539.940735	50.259136	1248.989014	-410.549652	1443.436768	1128.817017	-392.293274	1484.179321	1350.225952	-185.625763	1449.554810	1109.145020	-420.095489	1665.513184	1088.738770	-257.949097	1333.305542	1179.478638	-178.244202	1319.267700	1327.484253	-245.154678	1501.264404	1188.518799	-406.067383	1340.259766	1259.903809	-546.989502	1321.232910	1173.752686	-630.747498	1299.068237	1315.655396	-519.265381	1157.557251	1164.551270	-406.067444	1340.259766	1259.903809	-406.067413	1340.259766	1259.903687	-415.250824	1308.336426	1424.051270	-573.222229	1337.318237	1249.979980	-401.292725	1175.881836	1228.202637	-120.281609	1095.845459	1170.950562	-210.588547	1052.673950	915.229614	-340.064789	964.844421	1270.682129	-257.949097	1333.305542	1179.478638	31.537779	939.665955	1300.374390	36.206573	792.057007	1116.773682	-157.042267	827.263428	1385.946899	-109.654251	1084.912964	1180.010132	98.349937	835.276062	1391.226196	210.776718	935.045898	1423.184692	179.043854	782.703369	1271.477417	31.537765	939.665955	1300.374390	-662.257324	1076.466675	1157.051147	-503.327057	1016.026062	945.948731	-849.154663	1176.028564	987.838379	-546.989441	1321.232910	1173.752686	-837.563110	917.723633	1257.276611	-779.640015	751.681641	1095.603638	-1002.268555	1005.463684	1108.155884	-674.528748	1065.354614	1164.066895	-933.007873	824.817139	1346.456055	-1057.783691	919.000732	1311.033936	-901.139709	915.327393	1474.856079	-837.563171	917.723694	1257.276611	-0.353842	1.661909	-11.667314	0.353842	-1.661909	-11.667314	-4.273809	-17.134420	-2.722116	-2.065748	-15.113435	-4.847688	7.682988	-12.030362	-14.043983	6.138094	-9.219864	-13.250452	-3.250291	-16.435396	-12.689154	-3.166858	-11.580342	-10.901549	0.650390	10.621882	-5.761102	0.316414	8.219837	-3.498591	-0.000000	0.000000	0.000000	-0.000000	0.000000	0.000000	0.000000	0.000000	-9.372333	0.000000	0.000000	-8.820658	1.048051	-8.346488	21.122177	-1.048051	8.346488	21.122177	-1.319022	1.461861	0.680412	1.319022	-1.461861	0.680412	-29.085493	-29.577585	-6.136612	0.000000	-0.000000	-35.157951	10.999424	123.378624	-1.547082	-26.618204	-40.542301	-7.761479	-0.000000	0.000000	-34.488438	8.606052	115.761055	-6.856724	1.633694	-3.144639	-10.915735	-1.633694	3.144639	-10.915735	2.422225	4.640346	-10.230098	-2.422225	-4.640346	-10.230098	-0.000000	-0.000254	-0.000000	0.000000	0.000056	0.000000	0.000000	0.000035	0.000000	0.000000	0.000306	0.000000	-0.000000	-0.000060	-0.000000	0.000000	0.000045	0.000000	0.000000	0.000875	0.000000	0.000000	0.000875	0.000000	0.000000	0.011313	0.000000	0.000000	0.011313	0.000000	0.000000	0.000185	0.000000	0.000000	0.000459	0.000000	-0.000000	-0.000003	-0.000000	-0.000000	-0.000207	-0.000000	-0.000000	-0.000011	-0.000000	-0.000000	-0.000165	-0.000000	-398.021027	1.304700	259.089996	-231.415008	1.697000	-251.317001	-396.987000	4.582600	-949.962036	0.000000	0.000000	0.000000	0.000000	0.000000	0.000000	-0.193475	1.563926	-0.107732	0.159132	1.569772	-0.069523	-0.063701	0.590240	0.075240	0.044537	0.591440	0.079197	-0.012580	-0.006444	0.141538	0.008242	-0.011605	0.141532	-0.001944	4.457548	0.922693	-0.001944	4.457548	0.922693	-0.159113	8.850095	1.723701	-0.159113	8.850095	1.723701	0.234382	0.424333	0.076798	-0.180749	0.442843	0.109139	0.103180	0.133166	0.135203	-0.079726	0.133457	0.149899	0.020125	0.040027	-0.038270	-0.033066	0.034213	-0.034739	0.000000	0.000000	0.000000	0.000000	0.000000	0.000000	0.000000	0.000000	0.000000	0.000000	0.000000	0.000000	-59.278564	-2.556206	12.393855	-46.742291	-1.704476	3.649792	-15.196512	0.803307	10.505437	-10.539917	0.547700	11.466060	-1.303031	0.733339	7.583612	-0.934568	0.515715	7.539779	-13.810274	-2.818491	-74.998680	13.810274	2.818491	-74.998680	-83.115585	-32.836452	935.764282	83.115585	32.836452	935.764282	-57.292160	-9.881339	36.680141	-43.959568	-7.806403	45.481640	-16.515285	-0.454155	22.230467	-13.018032	-0.527848	25.220272	-1.175325	-0.000000	-2.231112	-2.006162	-0.000000	-2.112297	-226.754257	479.982422	1208.246582	-552.628113	482.010284	1196.177124	-230.635422	46.563747	1130.452515	-541.778687	47.111256	1125.890991	-281.474670	469.609863	1218.863159	-498.683075	473.793854	1206.911865	-266.602997	49.676670	1150.301270	-505.420258	54.688599	1142.919189	-194.839172	673.225098	1189.022827	-588.851196	672.622375	1180.615601	-168.664093	253.377701	1126.842407	-610.882629	254.188156	1125.784668	-398.021027	1.304700	259.089996	-231.415008	1.697000	-251.317001	-396.987000	4.582600	-949.962036	-397.694702	934.255127	1237.301270	-397.694702	0.000000	1237.301270	0.000000	0.000000	0.000000	0.000000	0.000000	0.000000	0.000000	0.000000	0.000000	0.000000	0.000000	0.000000	-293.255759	850.366412	1195.191480	-496.745335	850.329656	1189.155184	-0.193475	1.563926	-0.107732	
133	0.880000	-334.714661	1545.747314	1298.608643	-333.553742	1521.689941	1159.324219	-461.465485	1542.822754	1306.931763	-484.495117	1518.091553	1181.118774	-400.990601	1406.209473	1149.373535	-393.789093	1225.687500	1086.858154	-406.451202	1338.933716	1266.763306	-407.347656	1302.603760	1287.479248	-508.460907	1267.152344	1077.665894	-254.392380	1380.111328	1181.984985	-145.954086	1189.828491	1152.087280	-88.264366	1114.373169	1172.325317	-41.653957	1071.237427	1193.192383	48.800819	940.876221	1269.213623	23.039742	949.315918	1333.565552	78.687752	900.511719	1350.644165	-554.835266	1367.494019	1176.364502	-622.901916	1281.336426	1157.730103	-694.371521	1092.212524	1147.657593	-817.387268	951.709961	1204.474365	-842.792908	909.612305	1222.705688	-842.192932	935.130127	1288.442017	-900.310364	883.072510	1298.139648	-393.899383	971.731262	1083.072388	-254.067474	934.143066	1269.390259	-540.271240	934.085449	1260.918335	-206.245499	643.516052	1238.937988	-191.091415	553.451538	1157.062378	-235.205704	566.749329	1292.888062	-202.896362	258.275879	1179.246094	-188.181000	179.831238	1087.029053	-227.585754	178.414902	1223.656006	-275.639038	39.436890	1091.260376	-226.242157	38.875031	1252.069458	-583.705810	660.879639	1198.381958	-555.376648	589.731750	1100.806152	-582.630920	572.032898	1240.989014	-577.007873	267.653442	1153.979370	-555.141296	203.229904	1053.843018	-571.257568	182.353745	1193.611572	-495.218048	41.378086	1085.231079	-539.852722	39.892933	1246.323730	-395.185974	848.690857	1199.745850	-395.623321	845.633240	1214.540771	-382.596619	848.693359	1200.118530	-395.964569	972.035584	1225.214111	-393.524963	959.594421	1141.863403	-393.707214	958.320435	1148.027954	-387.230255	959.595703	1142.049805	-393.914429	1021.266846	1154.597412	-281.467834	469.608795	1218.880981	-274.667419	472.225586	1256.474243	-244.127197	474.287781	1211.800537	-332.241211	848.766296	1201.673096	-498.680512	473.788818	1206.927368	-505.785431	475.456604	1243.926880	-461.866150	469.982117	1214.168335	-458.130829	848.615356	1197.818481	-266.453491	45.477253	1149.618652	-248.406921	40.652611	1183.074707	-231.552032	49.688004	1131.399658	-280.278595	436.014252	1213.394775	-505.490784	50.496296	1142.282471	-521.172119	45.280716	1178.085938	-469.314911	47.559841	1157.699219	-499.219940	440.260651	1201.807007	-226.981781	49.209663	1252.789185	-227.934189	62.517349	1253.715942	-214.237076	50.391823	1248.911621	-266.384735	55.279934	1125.130981	-539.497009	50.055889	1247.281860	-539.035889	63.231144	1248.524048	-526.721558	49.288502	1250.679077	-504.975678	60.857193	1119.901001	-214.045334	47.563061	1294.806396	-214.346100	51.765484	1295.098999	-210.020691	47.936367	1293.581909	-226.488403	49.479698	1254.493286	-550.840515	46.849594	1289.216187	-550.694946	51.010208	1289.608521	-546.806152	46.607277	1290.289063	-539.938843	50.260803	1248.990723	-410.563232	1443.434448	1128.812622	-392.298584	1484.182251	1350.219849	-185.640717	1449.568115	1109.129150	-420.126862	1665.509033	1088.730835	-257.954651	1333.313965	1179.470703	-178.241943	1319.294556	1327.472412	-245.169327	1501.273071	1188.494507	-406.068054	1340.267334	1259.902222	-546.995972	1321.225220	1173.767212	-630.738586	1299.070679	1315.678711	-519.264893	1157.551514	1164.579468	-406.068115	1340.267334	1259.902222	-406.068085	1340.267334	1259.902222	-415.234345	1308.359985	1424.052368	-573.222168	1337.317017	1249.994751	-401.288696	1175.887939	1228.217163	-120.271942	1095.863647	1170.942383	-210.610992	1052.665649	915.238037	-340.031586	964.855286	1270.714600	-257.954559	1333.313965	1179.470703	31.577099	939.704163	1300.358032	36.230896	792.080444	1116.767456	-156.984055	827.294495	1385.965942	-109.642517	1084.932373	1180.001465	98.399132	835.321838	1391.213745	210.838043	935.090454	1423.140137	179.070648	782.727783	1271.457520	31.577080	939.704163	1300.358154	-662.259644	1076.448120	1157.108032	-503.298035	1015.959595	946.035889	-849.140869	1175.968872	987.844543	-546.995972	1321.225220	1173.767212	-837.560791	917.725525	1257.332275	-779.608521	751.665466	1095.710815	-1002.238281	1005.421997	1108.179321	-674.530701	1065.337524	1164.123779	-932.972961	824.783325	1346.504028	-1057.775879	918.931580	1311.096191	-901.127930	915.288635	1474.909668	-837.560791	917.725464	1257.332275	-0.354251	1.658149	-11.666507	0.354251	-1.658149	-11.666507	-4.273726	-17.135160	-2.722430	-2.067189	-15.111558	-4.846751	7.681396	-12.031053	-14.042561	6.140215	-9.218312	-13.246612	-3.249763	-16.432701	-12.690345	-3.168020	-11.585124	-10.900296	0.650666	10.622589	-5.762914	0.316728	8.221361	-3.501033	0.000000	-0.000000	0.000000	0.000000	0.000000	-0.000000	0.000000	0.000000	-9.374113	0.000000	0.000000	-8.822810	1.045827	-8.344193	21.117825	-1.045827	8.344193	21.117825	-1.320442	1.459620	0.685125	1.320442	-1.459620	0.685125	-29.086439	-29.579332	-6.134256	0.000000	-0.000000	-35.157902	11.003827	123.371658	-1.547618	-26.619041	-40.557373	-7.763102	0.000000	0.000000	-34.485226	8.620174	115.772156	-6.838456	1.635341	-3.138794	-10.910277	-1.635341	3.138794	-10.910277	2.426758	4.642454	-10.231032	-2.426758	-4.642454	-10.231032	-0.000000	-0.000260	-0.000000	0.000000	0.000059	0.000000	0.000000	0.000035	0.000000	0.000000	0.000312	0.000000	-0.000000	-0.000060	-0.000000	0.000000	0.000046	0.000000	0.000000	0.000882	0.000000	0.000000	0.000882	0.000000	0.000000	0.011457	0.000000	0.000000	0.011457	0.000000	0.000000	0.000189	0.000000	0.000000	0.000478	0.000000	-0.000000	-0.000004	-0.000000	-0.000000	-0.000219	-0.000000	-0.000000	-0.000011	-0.000000	-0.000000	-0.000169	-0.000000	-398.021027	1.304700	259.089996	-231.415008	1.697000	-251.317001	-396.987000	4.582600	-949.962036	0.000000	0.000000	0.000000	0.000000	0.000000	0.000000	-0.193465	1.563927	-0.107726	0.159173	1.569773	-0.069442	-0.063703	0.590237	0.075259	0.044552	0.591438	0.079211	-0.012580	-0.006445	0.141538	0.008245	-0.011603	0.141532	-0.002039	4.457561	0.922631	-0.002039	4.457561	0.922631	-0.159593	8.850251	1.722857	-0.159593	8.850251	1.722857	0.234395	0.424317	0.076846	-0.180673	0.442854	0.109224	0.103186	0.133149	0.135216	-0.079693	0.133448	0.149925	0.020133	0.040023	-0.038269	-0.033064	0.034227	-0.034727	0.000000	0.000000	0.000000	0.000000	0.000000	0.000000	0.000000	0.000000	0.000000	0.000000	0.000000	0.000000	-59.275948	-2.556493	12.387761	-46.754658	-1.705007	3.624494	-15.197175	0.803311	10.510386	-10.543427	0.547832	11.470075	-1.303013	0.733335	7.583464	-0.934575	0.515833	7.539577	-13.805861	-2.815857	-75.029663	13.805861	2.815857	-75.029663	-83.257835	-32.910576	936.044800	83.257835	32.910576	936.044800	-57.295269	-9.882030	36.691338	-43.941139	-7.802320	45.499908	-16.516197	-0.454370	22.232716	-13.011612	-0.528015	25.222124	-1.175776	0.000000	-2.231062	-2.005989	-0.000000	-2.111515	-226.748138	479.981140	1208.260498	-552.626404	482.006500	1196.197876	-230.635178	46.564011	1130.454590	-541.782104	47.111633	1125.894409	-281.467834	469.608826	1218.880859	-498.680542	473.788818	1206.927368	-266.602173	49.676575	1150.304443	-505.423370	54.687309	1142.922485	-194.832672	673.224548	1189.036011	-588.848755	672.622131	1180.650024	-168.661652	253.378006	1126.849487	-610.882812	254.187851	1125.794678	-398.021027	1.304700	259.089996	-231.415008	1.697000	-251.317001	-396.987000	4.582600	-949.962036	-397.692261	934.258118	1237.310059	-397.692261	0.000000	1237.310059	0.000000	0.000000	0.000000	0.000000	0.000000	0.000000	0.000000	0.000000	0.000000	0.000000	0.000000	0.000000	-293.248985	850.369148	1195.213716	-496.737078	850.328183	1189.190261	-0.193465	1.563927	-0.107726	
